<?xml version="1.0" encoding="UTF-8" standalone="no" ?>
<!DOCTYPE svg PUBLIC "-//W3C//DTD SVG 1.1//EN" "http://www.w3.org/Graphics/SVG/1.1/DTD/svg11.dtd">
<svg xmlns="http://www.w3.org/2000/svg" xmlns:xlink="http://www.w3.org/1999/xlink" version="1.1" width="1200" height="400" viewBox="0 0 1200 400" xml:space="preserve">
<desc>Created with Fabric.js 5.3.0</desc>
<defs>
</defs>
<g transform="matrix(2.0263296683882985 0 0 2.0263296683882985 600.3844415926385 200.54687827800592)" id="background-d5e2ab99-181b-4790-80f2-0769243d726b"  >
<rect style="stroke: none; stroke-width: 0; stroke-dasharray: none; stroke-linecap: butt; stroke-dashoffset: 0; stroke-linejoin: miter; stroke-miterlimit: 4; fill: rgb(247,247,247); fill-rule: nonzero; opacity: 1;"  paint-order="stroke"  x="-340" y="-113.5" rx="0" ry="0" width="680" height="227" />
</g>
<g transform="matrix(1.9536019526691293 0 0 1.9536019526691293 612.5532699371859 255.51480088484195)" id="maker-logo"  >
<g style=""  paint-order="stroke"   >
		<g transform="matrix(1 0 0 1 0 0)" id="background-logo"  >
<rect style="stroke: none; stroke-width: 0; stroke-dasharray: none; stroke-linecap: butt; stroke-dashoffset: 0; stroke-linejoin: miter; stroke-miterlimit: 4; fill: rgb(247,247,247); fill-rule: nonzero; opacity: 0; visibility: hidden;"  paint-order="stroke"  x="-325" y="-260" rx="0" ry="0" width="650" height="520" />
</g>
		<g transform="matrix(1 0 0 1 15.01166560865397 -47.05501550268848)" id="text-logo"  >
<g style=""  paint-order="stroke"   >
		<g transform="matrix(1 0 0 1 0 0)" id="text-logo-path-0"  >
<path style="stroke: none; stroke-width: 0; stroke-dasharray: none; stroke-linecap: butt; stroke-dashoffset: 0; stroke-linejoin: miter; stroke-miterlimit: 4; fill: rgb(14,64,143); fill-rule: nonzero; opacity: 1;"  paint-order="stroke"  transform=" translate(-193.70499999999998, 9.8)" d="M 6.3 -19.6 L 1.82 -19.6 L 1.82 0 L 6.3 0 L 6.3 -7.84 L 14.14 -7.84 L 14.14 0 L 18.62 0 L 18.62 -19.6 L 14.14 -19.6 L 14.14 -12.04 L 6.3 -12.04 Z M 44.69 -19.6 L 30.6 -19.6 L 30.6 0 L 44.69 0 L 44.69 -4.2 L 35.08 -4.2 L 35.08 -8.12 L 43.01 -8.12 L 43.01 -12.32 L 35.08 -12.32 L 35.08 -15.4 L 44.69 -15.4 Z M 60.82 -19.6 L 56.06 -19.6 L 56.06 0 L 60.54 0 L 60.54 -12.07 L 68.1 0 L 72.86 0 L 72.86 -19.6 L 68.38 -19.6 L 68.38 -7.53 Z M 93.44 -19.6 L 84.84 -19.6 L 84.84 0 L 89.32 0 L 89.32 -7.17 L 91.39 -7.17 L 95.17 0 L 99.93 0 L 95.96 -7.56 C 98.39 -8.37 99.93 -10.47 99.93 -13.38 C 99.93 -17.19 97.27 -19.6 93.44 -19.6 Z M 95.45 -13.38 C 95.45 -12.1 94.58 -11.37 93.38 -11.37 L 89.32 -11.37 L 89.32 -15.4 L 93.38 -15.4 C 94.58 -15.4 95.45 -14.64 95.45 -13.38 Z M 115.22 -7.53 L 115.22 0 L 119.7 0 L 119.7 -7.53 L 125.89 -19.6 L 120.85 -19.6 L 117.46 -12.26 L 114.07 -19.6 L 109.03 -19.6 Z M 160.94 -19.6 L 154.14 -19.6 L 154.14 0 L 160.94 0 C 166.99 0 171.19 -3.78 171.19 -9.8 C 171.19 -15.82 166.99 -19.6 160.94 -19.6 Z M 158.62 -15.4 L 160.94 -15.4 C 164.33 -15.4 166.71 -13.33 166.71 -9.77 C 166.71 -6.22 164.33 -4.2 160.94 -4.2 L 158.62 -4.2 Z M 191.55 -19.6 L 186.79 -19.6 L 180.07 0 L 184.83 0 L 186.2 -4.2 L 192.14 -4.2 L 193.51 0 L 198.27 0 Z M 190.74 -8.4 L 187.6 -8.4 L 189.17 -13.22 Z M 209.64 -19.6 L 204.88 -19.6 L 211.6 0 L 216.36 0 L 223.08 -19.6 L 218.32 -19.6 L 213.98 -6.38 Z M 247.58 -19.6 L 233.49 -19.6 L 233.49 0 L 247.58 0 L 247.58 -4.2 L 237.97 -4.2 L 237.97 -8.12 L 245.9 -8.12 L 245.9 -12.32 L 237.97 -12.32 L 237.97 -15.4 L 247.58 -15.4 Z M 263.7 -19.6 L 258.94 -19.6 L 258.94 0 L 263.42 0 L 263.42 -12.07 L 270.98 0 L 275.74 0 L 275.74 -19.6 L 271.26 -19.6 L 271.26 -7.53 Z M 296.32 -19.6 L 287.73 -19.6 L 287.73 0 L 292.21 0 L 292.21 -7.17 L 296.32 -7.17 C 300.16 -7.17 302.82 -9.55 302.82 -13.38 C 302.82 -17.19 300.16 -19.6 296.32 -19.6 Z M 298.34 -13.38 C 298.34 -12.1 297.47 -11.37 296.27 -11.37 L 292.21 -11.37 L 292.21 -15.4 L 296.27 -15.4 C 297.47 -15.4 298.34 -14.64 298.34 -13.38 Z M 323.12 0.45 C 329.17 0.45 333.37 -3.81 333.37 -9.83 C 333.37 -15.85 329.14 -20.05 323.12 -20.05 C 317.1 -20.05 312.87 -15.85 312.87 -9.83 C 312.87 -3.78 317.07 0.45 323.12 0.45 Z M 323.12 -3.75 C 319.73 -3.75 317.35 -6.24 317.35 -9.8 C 317.35 -13.36 319.73 -15.85 323.12 -15.85 C 326.51 -15.85 328.89 -13.36 328.89 -9.8 C 328.89 -6.24 326.51 -3.75 323.12 -3.75 Z M 353.11 -19.6 L 344.51 -19.6 L 344.51 0 L 348.99 0 L 348.99 -7.17 L 351.06 -7.17 L 354.84 0 L 359.6 0 L 355.63 -7.56 C 358.06 -8.37 359.6 -10.47 359.6 -13.38 C 359.6 -17.19 356.94 -19.6 353.11 -19.6 Z M 355.12 -13.38 C 355.12 -12.1 354.26 -11.37 353.05 -11.37 L 348.99 -11.37 L 348.99 -15.4 L 353.05 -15.4 C 354.26 -15.4 355.12 -14.64 355.12 -13.38 Z M 379.71 -15.4 L 385.59 -15.4 L 385.59 -19.6 L 369.35 -19.6 L 369.35 -15.4 L 375.23 -15.4 L 375.23 0 L 379.71 0 Z" stroke-linecap="round" />
</g>
</g>
</g>
		<g transform="matrix(1 0 0 1 15.113667172679897 -14.401321958341178)" id="tagline-8fc93610-7153-4ebe-8dc4-55882a7d86a3-logo"  >
<g style=""  paint-order="stroke"   >
		<g transform="matrix(1 0 0 1 0 0)" id="tagline-8fc93610-7153-4ebe-8dc4-55882a7d86a3-logo-path-0"  >
<path style="stroke: none; stroke-width: 0; stroke-dasharray: none; stroke-linecap: butt; stroke-dashoffset: 0; stroke-linejoin: miter; stroke-miterlimit: 4; fill: rgb(154,154,154); fill-rule: nonzero; opacity: 1;"  paint-order="stroke"  transform=" translate(-192.56499999999997, 5.95)" d="M 6.27 -11.9 L 1.1 -11.9 L 1.1 0 L 6.68 0 C 8.65 0 10.03 -1.24 10.03 -3.21 C 10.03 -4.64 9.3 -5.7 8.14 -6.15 C 8.99 -6.68 9.52 -7.6 9.52 -8.79 C 9.52 -10.71 8.19 -11.9 6.27 -11.9 Z M 5.66 -7.11 L 3.83 -7.11 L 3.83 -9.35 L 5.66 -9.35 C 6.32 -9.35 6.8 -8.96 6.8 -8.25 C 6.8 -7.51 6.32 -7.11 5.66 -7.11 Z M 6.19 -2.55 L 3.83 -2.55 L 3.83 -4.74 L 6.19 -4.74 C 6.83 -4.74 7.31 -4.33 7.31 -3.64 C 7.31 -2.94 6.83 -2.55 6.19 -2.55 Z M 27.88 -11.9 L 27.88 -4.78 C 27.88 -3.32 26.91 -2.28 25.5 -2.28 C 24.11 -2.28 23.12 -3.32 23.12 -4.78 L 23.12 -11.9 L 20.4 -11.9 L 20.4 -4.85 C 20.4 -1.84 22.51 0.27 25.5 0.27 C 28.51 0.27 30.6 -1.84 30.6 -4.85 L 30.6 -11.9 Z M 43.96 -8.81 C 43.96 -9.32 44.66 -9.62 45.32 -9.62 C 46.31 -9.62 47.41 -8.89 48.08 -8.09 L 50.03 -9.84 C 48.74 -11.44 47.33 -12.17 45.54 -12.17 C 43.06 -12.17 41.17 -10.74 41.17 -8.89 C 41.17 -5.39 47.75 -4.78 47.75 -3.23 C 47.75 -2.72 47.11 -2.28 46.21 -2.28 C 44.83 -2.26 43.28 -3.26 42.43 -4.1 L 40.83 -1.99 C 42.19 -0.58 44.12 0.27 46.09 0.27 C 47.89 0.27 50.52 -0.94 50.52 -3.26 C 50.52 -6.92 43.96 -7.33 43.96 -8.81 Z M 63.7 -11.9 L 60.98 -11.9 L 60.98 0 L 63.7 0 Z M 77.61 -11.9 L 74.72 -11.9 L 74.72 0 L 77.44 0 L 77.44 -7.33 L 82.03 0 L 84.92 0 L 84.92 -11.9 L 82.19 -11.9 L 82.19 -4.57 Z M 104.5 -11.9 L 95.95 -11.9 L 95.95 0 L 104.5 0 L 104.5 -2.55 L 98.67 -2.55 L 98.67 -4.93 L 103.48 -4.93 L 103.48 -7.48 L 98.67 -7.48 L 98.67 -9.35 L 104.5 -9.35 Z M 117.66 -8.81 C 117.66 -9.32 118.35 -9.62 119.02 -9.62 C 120 -9.62 121.11 -8.89 121.77 -8.09 L 123.73 -9.84 C 122.43 -11.44 121.02 -12.17 119.24 -12.17 C 116.76 -12.17 114.87 -10.74 114.87 -8.89 C 114.87 -5.39 121.45 -4.78 121.45 -3.23 C 121.45 -2.72 120.8 -2.28 119.9 -2.28 C 118.52 -2.26 116.98 -3.26 116.13 -4.1 L 114.53 -1.99 C 115.89 -0.58 117.81 0.27 119.78 0.27 C 121.58 0.27 124.22 -0.94 124.22 -3.26 C 124.22 -6.92 117.66 -7.33 117.66 -8.81 Z M 137.19 -8.81 C 137.19 -9.32 137.89 -9.62 138.55 -9.62 C 139.54 -9.62 140.64 -8.89 141.3 -8.09 L 143.26 -9.84 C 141.97 -11.44 140.56 -12.17 138.77 -12.17 C 136.29 -12.17 134.4 -10.74 134.4 -8.89 C 134.4 -5.39 140.98 -4.78 140.98 -3.23 C 140.98 -2.72 140.34 -2.28 139.43 -2.28 C 138.06 -2.26 136.51 -3.26 135.66 -4.1 L 134.06 -1.99 C 135.42 -0.58 137.34 0.27 139.32 0.27 C 141.12 0.27 143.75 -0.94 143.75 -3.26 C 143.75 -6.92 137.19 -7.33 137.19 -8.81 Z M 171.62 -11.9 L 168.9 -11.9 L 168.9 0 L 171.62 0 Z M 185.52 -11.9 L 182.63 -11.9 L 182.63 0 L 185.35 0 L 185.35 -7.33 L 189.94 0 L 192.83 0 L 192.83 -11.9 L 190.11 -11.9 L 190.11 -4.57 Z M 209.25 -9.35 L 212.82 -9.35 L 212.82 -11.9 L 202.96 -11.9 L 202.96 -9.35 L 206.53 -9.35 L 206.53 0 L 209.25 0 Z M 231.51 -11.9 L 222.96 -11.9 L 222.96 0 L 231.51 0 L 231.51 -2.55 L 225.68 -2.55 L 225.68 -4.93 L 230.49 -4.93 L 230.49 -7.48 L 225.68 -7.48 L 225.68 -9.35 L 231.51 -9.35 Z M 244.87 -11.9 L 242.15 -11.9 L 242.15 0 L 250.7 0 L 250.7 -2.55 L 244.87 -2.55 Z M 263.55 -11.9 L 260.83 -11.9 L 260.83 0 L 269.38 0 L 269.38 -2.55 L 263.55 -2.55 Z M 282.23 -11.9 L 279.51 -11.9 L 279.51 0 L 282.23 0 Z M 298.96 0.27 C 300.95 0.27 302.62 -0.48 303.72 -1.77 L 303.72 -6.49 L 298.96 -6.49 L 298.96 -4.11 L 301 -4.11 L 301 -2.89 C 300.44 -2.5 299.74 -2.28 298.96 -2.28 C 296.91 -2.28 295.46 -3.79 295.46 -5.95 C 295.46 -8.11 296.91 -9.62 298.96 -9.62 C 299.95 -9.62 300.8 -9.27 301.43 -8.67 L 303.21 -10.66 C 302.12 -11.63 300.66 -12.17 298.96 -12.17 C 295.31 -12.17 292.74 -9.64 292.74 -5.97 C 292.74 -2.3 295.31 0.27 298.96 0.27 Z M 322.93 -11.9 L 314.38 -11.9 L 314.38 0 L 322.93 0 L 322.93 -2.55 L 317.1 -2.55 L 317.1 -4.93 L 321.91 -4.93 L 321.91 -7.48 L 317.1 -7.48 L 317.1 -9.35 L 322.93 -9.35 Z M 336.46 -11.9 L 333.57 -11.9 L 333.57 0 L 336.29 0 L 336.29 -7.33 L 340.88 0 L 343.77 0 L 343.77 -11.9 L 341.05 -11.9 L 341.05 -4.57 Z M 360.52 0.27 C 362.51 0.27 364.17 -0.48 365.28 -1.77 L 363.24 -3.54 C 362.61 -2.74 361.66 -2.28 360.52 -2.28 C 358.46 -2.28 357.02 -3.79 357.02 -5.95 C 357.02 -8.11 358.46 -9.62 360.52 -9.62 C 361.51 -9.62 362.36 -9.27 362.98 -8.67 L 364.77 -10.66 C 363.68 -11.63 362.22 -12.17 360.52 -12.17 C 356.86 -12.17 354.3 -9.64 354.3 -5.97 C 354.3 -2.3 356.86 0.27 360.52 0.27 Z M 384.03 -11.9 L 375.48 -11.9 L 375.48 0 L 384.03 0 L 384.03 -2.55 L 378.2 -2.55 L 378.2 -4.93 L 383.01 -4.93 L 383.01 -7.48 L 378.2 -7.48 L 378.2 -9.35 L 384.03 -9.35 Z" stroke-linecap="round" />
</g>
</g>
</g>
		<g transform="matrix(0.6950664685949469 0 0 0.6950664685949469 -248.53054100032716 -29.66593550268857)" id="logo-logo"  >
<g style=""  paint-order="stroke"   >
		<g transform="matrix(0.538552014660227 0 0 0.538552014660227 0 0)"  >
<g style=""  paint-order="stroke"   >
		<g transform="matrix(1 0 0 1 0 0)"  >
<path style="stroke: none; stroke-width: 1; stroke-dasharray: none; stroke-linecap: butt; stroke-dashoffset: 0; stroke-linejoin: miter; stroke-miterlimit: 4; fill: rgb(14,64,143); fill-rule: nonzero; opacity: 1;"  paint-order="stroke"  transform=" translate(-192.23404, -744.23407)" d="M 42.23404 877.26312 L 42.23404 642.23407 C 42.23404 615.72443 63.724270000000004 594.23407 90.23404 594.23407 L 325.26383 594.23407 L 305.26358999999997 614.23407 L 90.23404 614.23407 C 74.79482999999999 614.23407 62.23403999999999 626.7948 62.23403999999999 642.23407 L 62.23403999999999 857.2631799999999 L 42.23404 877.26312 z M 322.23404 631.20508 L 322.23404 846.23407 C 322.23404 861.6733399999999 309.67325 874.23407 294.23404 874.23407 L 79.2045 874.23407 L 59.204499999999996 894.23407 L 294.23404 894.23407 C 320.74356 894.23407 342.23404 872.74371 342.23404 846.23407 L 342.23404 611.20514 L 322.23404 631.20508 z" stroke-linecap="round" />
</g>
</g>
</g>
		<g transform="matrix(0.1104931940228909 -0.11441905187824644 0.021214550059192205 0.020486652854744665 66.85660980818409 -75.2725146168288)"  >
<g style=""  paint-order="stroke"   >
		<g transform="matrix(1 0 0 1 0 0)"  >
<rect style="stroke: none; stroke-width: 0; stroke-dasharray: none; stroke-linecap: butt; stroke-dashoffset: 0; stroke-linejoin: miter; stroke-miterlimit: 4; fill: rgb(14,64,143); fill-rule: nonzero; opacity: 1;"  paint-order="stroke"  x="-100" y="-100" rx="0" ry="0" width="200" height="200" />
</g>
</g>
</g>
		<g transform="matrix(0.1104931940228909 -0.11441905187824644 0.021214550059192205 0.020486652854744665 72.06153519620113 -61.78194414352967)"  >
<g style=""  paint-order="stroke"   >
		<g transform="matrix(1 0 0 1 0 0)"  >
<rect style="stroke: none; stroke-width: 0; stroke-dasharray: none; stroke-linecap: butt; stroke-dashoffset: 0; stroke-linejoin: miter; stroke-miterlimit: 4; fill: rgb(14,64,143); fill-rule: nonzero; opacity: 1;"  paint-order="stroke"  x="-100" y="-100" rx="0" ry="0" width="200" height="200" />
</g>
</g>
</g>
		<g transform="matrix(0.1104931940228909 -0.11441905187824644 0.021214550059192205 0.020486652854744665 -72.06153519620113 61.7819441435297)"  >
<g style=""  paint-order="stroke"   >
		<g transform="matrix(1 0 0 1 0 0)"  >
<rect style="stroke: none; stroke-width: 0; stroke-dasharray: none; stroke-linecap: butt; stroke-dashoffset: 0; stroke-linejoin: miter; stroke-miterlimit: 4; fill: rgb(14,64,143); fill-rule: nonzero; opacity: 1;"  paint-order="stroke"  x="-100" y="-100" rx="0" ry="0" width="200" height="200" />
</g>
</g>
</g>
		<g transform="matrix(0.1104931940228909 -0.11441905187824644 0.021214550059192205 0.020486652854744665 -66.85660980818403 75.27251461682886)"  >
<g style=""  paint-order="stroke"   >
		<g transform="matrix(1 0 0 1 0 0)"  >
<rect style="stroke: none; stroke-width: 0; stroke-dasharray: none; stroke-linecap: butt; stroke-dashoffset: 0; stroke-linejoin: miter; stroke-miterlimit: 4; fill: rgb(14,64,143); fill-rule: nonzero; opacity: 1;"  paint-order="stroke"  x="-100" y="-100" rx="0" ry="0" width="200" height="200" />
</g>
</g>
</g>
</g>
</g>
		<g transform="matrix(1 0 0 1 -247.66129100032714 -31.70995550268852)" id="tagline-2102d19a-5cc3-4fca-b5e5-62ab816d9fa0-logo"  >
<g style=""  paint-order="stroke"   >
		<g transform="matrix(1 0 0 1 0 0)" id="tagline-2102d19a-5cc3-4fca-b5e5-62ab816d9fa0-logo-path-0"  >
<path style="stroke: none; stroke-width: 0; stroke-dasharray: none; stroke-linecap: butt; stroke-dashoffset: 0; stroke-linejoin: miter; stroke-miterlimit: 4; fill: rgb(14,64,143); fill-rule: nonzero; opacity: 1;"  paint-order="stroke"  transform=" translate(-43.265, 19.95)" d="M 12.83 -39.9 L 3.71 -39.9 L 3.71 0 L 12.83 0 L 12.83 -15.96 L 28.79 -15.96 L 28.79 0 L 37.91 0 L 37.91 -39.9 L 28.79 -39.9 L 28.79 -24.51 L 12.83 -24.51 Z M 61.96 -39.9 L 48.11 -39.9 L 48.11 0 L 61.96 0 C 74.27 0 82.82 -7.7 82.82 -19.95 C 82.82 -32.2 74.27 -39.9 61.96 -39.9 Z M 57.23 -31.35 L 61.96 -31.35 C 68.86 -31.35 73.7 -27.13 73.7 -19.89 C 73.7 -12.65 68.86 -8.55 61.96 -8.55 L 57.23 -8.55 Z" stroke-linecap="round" />
</g>
</g>
</g>
</g>
</g>
<g transform="matrix(1.7656911542346903 0 0 1.7656911542346903 642.2320140066289 278.26615012614633)" id="tagline-8499cbbc-2dec-4526-9442-08d05a21d55b-logo"  >
<g style=""  paint-order="stroke"   >
		<g transform="matrix(1 0 0 1 0 0)" id="tagline-8499cbbc-2dec-4526-9442-08d05a21d55b-logo-path-0"  >
<path style="stroke: none; stroke-width: 0; stroke-dasharray: none; stroke-linecap: butt; stroke-dashoffset: 0; stroke-linejoin: miter; stroke-miterlimit: 4; fill: rgb(14,64,143); fill-rule: nonzero; opacity: 1;"  paint-order="stroke"  transform=" translate(-207.205, 3.7300000000000004)" d="M 4.23 -0.84 C 2.62 -0.84 1.61 -1.65 1.61 -3.04 C 1.61 -4.37 2.56 -5.24 4.23 -5.24 C 5.85 -5.24 6.83 -4.44 6.83 -3.04 C 6.83 -1.69 5.89 -0.84 4.23 -0.84 Z M 0.77 -3.04 C 0.77 -1.2 2.25 0 4.23 0 C 6.29 0 7.67 -1.27 7.67 -3.04 C 7.67 -4.31 6.99 -5.26 5.91 -5.74 C 6.47 -6.15 6.79 -6.78 6.79 -7.52 C 6.79 -8.9 5.7 -9.8 4.23 -9.8 C 2.7 -9.8 1.65 -8.83 1.65 -7.52 C 1.65 -6.76 1.99 -6.13 2.55 -5.74 C 1.44 -5.25 0.77 -4.26 0.77 -3.04 Z M 2.49 -7.52 C 2.49 -8.41 3.09 -8.96 4.23 -8.96 C 5.33 -8.96 5.95 -8.46 5.95 -7.52 C 5.95 -6.61 5.36 -6.08 4.23 -6.08 C 3.12 -6.08 2.49 -6.59 2.49 -7.52 Z M 17.93 -0.38 L 17.93 -2.38 L 18.65 -2.38 C 18.89 -2.38 19.07 -2.56 19.07 -2.8 C 19.07 -3.04 18.89 -3.22 18.65 -3.22 L 17.93 -3.22 L 17.93 -9.03 C 17.93 -9.8 16.94 -10.09 16.52 -9.44 L 12.61 -3.42 C 12.32 -2.98 12.63 -2.38 13.19 -2.38 L 17.09 -2.38 L 17.09 -0.38 C 17.09 -0.14 17.28 0.04 17.51 0.04 C 17.75 0.04 17.93 -0.14 17.93 -0.38 Z M 13.31 -2.97 L 13.33 -2.98 C 13.31 -2.98 13.31 -2.97 13.31 -2.97 Z M 13.48 -3.22 L 17.09 -8.79 L 17.09 -3.22 Z M 25.59 -8.47 C 25.89 -8.79 26.32 -8.96 26.96 -8.96 C 28.07 -8.96 28.69 -8.46 28.69 -7.52 C 28.69 -6.71 28.21 -6.19 27.3 -6.09 C 27.09 -6.08 26.92 -5.89 26.92 -5.67 L 26.92 -5.66 L 26.92 -5.64 C 26.92 -5.42 27.09 -5.24 27.31 -5.22 C 28.73 -5.11 29.57 -4.34 29.57 -3.04 C 29.57 -1.69 28.63 -0.84 26.96 -0.84 C 25.84 -0.84 25.05 -1.25 24.63 -1.96 L 23.9 -1.54 C 24.47 -0.57 25.61 0 26.96 0 C 29.02 0 30.41 -1.27 30.41 -3.04 C 30.41 -4.31 29.72 -5.26 28.66 -5.74 C 29.2 -6.15 29.53 -6.78 29.53 -7.52 C 29.53 -8.9 28.43 -9.8 26.96 -9.8 C 26.14 -9.8 25.44 -9.51 24.98 -9.03 C 24.91 -8.96 24.86 -8.85 24.86 -8.74 C 24.86 -8.51 25.05 -8.33 25.28 -8.33 C 25.41 -8.33 25.52 -8.37 25.59 -8.47 Z M 35.8 0 C 36.11 0 36.36 -0.25 36.36 -0.56 C 36.36 -0.87 36.11 -1.12 35.8 -1.12 C 35.49 -1.12 35.24 -0.87 35.24 -0.56 C 35.24 -0.25 35.49 0 35.8 0 Z M 46.62 -0.38 L 46.62 -2.38 L 47.33 -2.38 C 47.57 -2.38 47.75 -2.56 47.75 -2.8 C 47.75 -3.04 47.57 -3.22 47.33 -3.22 L 46.62 -3.22 L 46.62 -9.03 C 46.62 -9.8 45.63 -10.09 45.21 -9.44 L 41.3 -3.42 C 41.01 -2.98 41.31 -2.38 41.87 -2.38 L 45.78 -2.38 L 45.78 -0.38 C 45.78 -0.14 45.96 0.04 46.2 0.04 C 46.44 0.04 46.62 -0.14 46.62 -0.38 Z M 42 -2.97 L 42.01 -2.98 C 42 -2.98 42 -2.97 42 -2.97 Z M 42.17 -3.22 L 45.78 -8.79 L 45.78 -3.22 Z M 52.58 -6.76 C 52.58 -4.91 54.04 -3.72 55.66 -3.72 C 56.76 -3.72 57.67 -4.1 58.41 -4.79 C 58.38 -2.1 57.46 -0.84 55.79 -0.84 C 55.17 -0.84 54.71 -1.01 54.32 -1.34 C 54.25 -1.4 54.15 -1.44 54.04 -1.44 C 53.82 -1.44 53.62 -1.26 53.62 -1.02 C 53.62 -0.9 53.68 -0.78 53.77 -0.7 C 54.32 -0.25 54.99 0 55.79 0 C 57.97 0 59.25 -1.79 59.25 -4.9 C 59.25 -7.9 58.07 -9.8 55.66 -9.8 C 53.97 -9.8 52.58 -8.53 52.58 -6.76 Z M 53.42 -6.76 C 53.42 -8.11 54.36 -8.96 55.66 -8.96 C 57.26 -8.96 58.13 -7.97 58.35 -5.99 C 57.65 -5.03 56.83 -4.56 55.66 -4.56 C 54.4 -4.56 53.42 -5.36 53.42 -6.76 Z M 69.51 -0.38 L 69.51 -2.38 L 70.22 -2.38 C 70.46 -2.38 70.64 -2.56 70.64 -2.8 C 70.64 -3.04 70.46 -3.22 70.22 -3.22 L 69.51 -3.22 L 69.51 -9.03 C 69.51 -9.8 68.52 -10.09 68.1 -9.44 L 64.19 -3.42 C 63.9 -2.98 64.2 -2.38 64.76 -2.38 L 68.67 -2.38 L 68.67 -0.38 C 68.67 -0.14 68.85 0.04 69.09 0.04 C 69.33 0.04 69.51 -0.14 69.51 -0.38 Z M 64.89 -2.97 L 64.9 -2.98 C 64.89 -2.98 64.89 -2.97 64.89 -2.97 Z M 65.06 -3.22 L 68.67 -8.79 L 68.67 -3.22 Z M 76.03 0 C 76.34 0 76.59 -0.25 76.59 -0.56 C 76.59 -0.87 76.34 -1.12 76.03 -1.12 C 75.73 -1.12 75.47 -0.87 75.47 -0.56 C 75.47 -0.25 75.73 0 76.03 0 Z M 83.12 -8.47 C 83.41 -8.79 83.85 -8.96 84.49 -8.96 C 85.6 -8.96 86.21 -8.46 86.21 -7.52 C 86.21 -6.71 85.74 -6.19 84.83 -6.09 C 84.62 -6.08 84.45 -5.89 84.45 -5.67 L 84.45 -5.66 L 84.45 -5.64 C 84.45 -5.42 84.62 -5.24 84.84 -5.22 C 86.25 -5.11 87.09 -4.34 87.09 -3.04 C 87.09 -1.69 86.16 -0.84 84.49 -0.84 C 83.37 -0.84 82.57 -1.25 82.15 -1.96 L 81.42 -1.54 C 82 -0.57 83.13 0 84.49 0 C 86.55 0 87.93 -1.27 87.93 -3.04 C 87.93 -4.31 87.25 -5.26 86.18 -5.74 C 86.73 -6.15 87.05 -6.78 87.05 -7.52 C 87.05 -8.9 85.96 -9.8 84.49 -9.8 C 83.66 -9.8 82.96 -9.51 82.5 -9.03 C 82.43 -8.96 82.39 -8.85 82.39 -8.74 C 82.39 -8.51 82.57 -8.33 82.81 -8.33 C 82.94 -8.33 83.05 -8.37 83.12 -8.47 Z M 94.46 -8.47 C 94.75 -8.79 95.19 -8.96 95.83 -8.96 C 96.94 -8.96 97.55 -8.46 97.55 -7.52 C 97.55 -6.71 97.08 -6.19 96.17 -6.09 C 95.96 -6.08 95.79 -5.89 95.79 -5.67 L 95.79 -5.66 L 95.79 -5.64 C 95.79 -5.42 95.96 -5.24 96.18 -5.22 C 97.59 -5.11 98.43 -4.34 98.43 -3.04 C 98.43 -1.69 97.5 -0.84 95.83 -0.84 C 94.71 -0.84 93.91 -1.25 93.49 -1.96 L 92.76 -1.54 C 93.34 -0.57 94.47 0 95.83 0 C 97.89 0 99.27 -1.27 99.27 -3.04 C 99.27 -4.31 98.59 -5.26 97.52 -5.74 C 98.07 -6.15 98.39 -6.78 98.39 -7.52 C 98.39 -8.9 97.3 -9.8 95.83 -9.8 C 95 -9.8 94.3 -9.51 93.84 -9.03 C 93.77 -8.96 93.73 -8.85 93.73 -8.74 C 93.73 -8.51 93.91 -8.33 94.15 -8.33 C 94.28 -8.33 94.39 -8.37 94.46 -8.47 Z M 104.1 -4.9 C 104.1 -1.9 105.28 0 107.69 0 C 109.38 0 110.77 -1.27 110.77 -3.04 C 110.77 -4.89 109.31 -6.08 107.69 -6.08 C 106.6 -6.08 105.69 -5.7 104.94 -5.01 C 104.97 -7.7 105.9 -8.96 107.56 -8.96 C 108.18 -8.96 108.64 -8.79 109.03 -8.46 C 109.1 -8.4 109.2 -8.36 109.31 -8.36 C 109.54 -8.36 109.73 -8.54 109.73 -8.78 C 109.73 -8.9 109.68 -9.02 109.58 -9.1 C 109.03 -9.55 108.36 -9.8 107.56 -9.8 C 105.38 -9.8 104.1 -8.01 104.1 -4.9 Z M 105 -3.81 C 105.7 -4.77 106.53 -5.24 107.69 -5.24 C 108.95 -5.24 109.93 -4.44 109.93 -3.04 C 109.93 -1.69 108.99 -0.84 107.69 -0.84 C 106.09 -0.84 105.22 -1.83 105 -3.81 Z M 121.23 -9.8 L 116.66 -9.8 C 116.33 -9.8 116.03 -9.51 116.03 -9.17 L 116.03 -5.46 C 116.03 -4.9 116.61 -4.56 117.1 -4.86 C 117.53 -5.11 118.03 -5.24 118.66 -5.24 C 120.29 -5.24 121.27 -4.44 121.27 -3.04 C 121.27 -1.69 120.33 -0.84 118.66 -0.84 C 117.54 -0.84 116.75 -1.25 116.33 -1.96 L 115.6 -1.54 C 116.17 -0.57 117.31 0 118.66 0 C 120.72 0 122.11 -1.27 122.11 -3.04 C 122.11 -4.89 120.65 -6.08 118.66 -6.08 C 117.99 -6.08 117.38 -5.94 116.87 -5.68 L 116.87 -8.96 L 121.23 -8.96 C 121.46 -8.96 121.65 -9.14 121.65 -9.38 C 121.65 -9.62 121.46 -9.8 121.23 -9.8 Z M 133.92 0 L 137.19 -9.3 C 137.28 -9.55 137.12 -9.87 136.79 -9.87 C 136.61 -9.87 136.44 -9.74 136.4 -9.58 L 133.03 0 Z M 148.97 0 L 148.97 -4.48 L 154.71 -4.48 L 154.71 0 L 155.55 0 L 155.55 -9.42 C 155.55 -9.66 155.37 -9.84 155.13 -9.84 C 154.9 -9.84 154.71 -9.66 154.71 -9.42 L 154.71 -5.32 L 148.97 -5.32 L 148.97 -9.42 C 148.97 -9.66 148.79 -9.84 148.55 -9.84 C 148.32 -9.84 148.13 -9.66 148.13 -9.42 L 148.13 0 Z M 160.38 -3.5 C 160.38 -1.43 161.55 0 163.45 0 C 164.21 0 164.89 -0.24 165.41 -0.67 C 165.51 -0.76 165.56 -0.87 165.56 -0.99 C 165.56 -1.22 165.38 -1.41 165.14 -1.41 C 165.05 -1.41 164.95 -1.37 164.86 -1.3 C 164.5 -0.99 164.05 -0.84 163.45 -0.84 C 162.12 -0.84 161.36 -1.64 161.24 -3.07 L 165.69 -3.07 C 166.05 -3.07 166.33 -3.36 166.33 -3.72 C 166.26 -5.66 165.19 -6.99 163.45 -6.99 C 161.62 -6.99 160.38 -5.64 160.38 -3.5 Z M 161.24 -3.91 C 161.36 -5.39 162.15 -6.15 163.45 -6.15 C 164.68 -6.15 165.37 -5.36 165.48 -3.91 Z M 172 0 L 172 -3.49 C 172 -5.26 172.76 -6.15 174.05 -6.15 C 175.38 -6.15 176.09 -5.21 176.09 -3.49 L 176.09 0 L 176.93 0 L 176.93 -3.49 C 176.93 -5.54 175.85 -6.99 174.05 -6.99 C 173.21 -6.99 172.51 -6.66 172 -6.09 L 172 -6.62 C 172 -6.86 171.82 -7.04 171.58 -7.04 C 171.35 -7.04 171.16 -6.86 171.16 -6.62 L 171.16 0 Z M 182.6 0 L 182.6 -3.95 C 182.62 -3.98 182.62 -4 182.62 -4.03 C 182.7 -5.45 183.37 -6.15 184.49 -6.15 C 185.04 -6.15 185.42 -5.99 185.71 -5.67 C 185.79 -5.59 185.89 -5.54 186.02 -5.54 C 186.24 -5.54 186.44 -5.73 186.44 -5.96 C 186.44 -6.08 186.4 -6.17 186.31 -6.26 C 185.86 -6.71 185.25 -6.99 184.49 -6.99 C 183.72 -6.99 183.08 -6.71 182.6 -6.2 L 182.6 -6.62 C 182.6 -6.86 182.42 -7.04 182.18 -7.04 C 181.94 -7.04 181.76 -6.86 181.76 -6.62 L 181.76 0 Z M 191.98 2.1 C 192.5 2.55 193.19 2.8 194.01 2.8 C 195.79 2.8 196.9 1.65 196.9 0 L 196.9 -6.62 C 196.9 -6.86 196.71 -7.04 196.48 -7.04 C 196.24 -7.04 196.06 -6.86 196.06 -6.62 L 196.06 -3.49 C 196.06 -1.78 195.34 -0.84 194.01 -0.84 C 192.71 -0.84 191.97 -1.72 191.97 -3.49 L 191.97 -6.62 C 191.97 -6.86 191.79 -7.04 191.55 -7.04 C 191.31 -7.04 191.13 -6.86 191.13 -6.62 L 191.13 -3.49 C 191.13 -1.36 192.26 0 194.01 0 C 194.87 0 195.57 -0.32 196.06 -0.88 L 196.06 0 C 196.06 1.26 195.37 1.96 194.01 1.96 C 193.35 1.96 192.89 1.81 192.54 1.48 C 192.47 1.41 192.37 1.37 192.26 1.37 C 192.04 1.37 191.84 1.55 191.84 1.79 C 191.84 1.92 191.9 2.02 191.98 2.1 Z M 202.29 0 C 202.59 0 202.85 -0.25 202.85 -0.56 C 202.85 -0.87 202.59 -1.12 202.29 -1.12 C 201.98 -1.12 201.73 -0.87 201.73 -0.56 C 201.73 -0.25 201.98 0 202.29 0 Z M 211.43 0 L 211.43 -8.96 L 213.92 -8.96 C 214.16 -8.96 214.34 -9.14 214.34 -9.38 C 214.34 -9.62 214.16 -9.8 213.92 -9.8 L 208.1 -9.8 C 207.86 -9.8 207.68 -9.62 207.68 -9.38 C 207.68 -9.14 207.86 -8.96 208.1 -8.96 L 210.59 -8.96 L 210.59 0 Z M 219.73 0 C 220.04 0 220.29 -0.25 220.29 -0.56 C 220.29 -0.87 220.04 -1.12 219.73 -1.12 C 219.42 -1.12 219.17 -0.87 219.17 -0.56 C 219.17 -0.25 219.42 0 219.73 0 Z M 225.12 0 L 227.92 0 C 230.78 0 232.36 -1.88 232.36 -4.9 C 232.36 -7.8 230.86 -9.8 227.92 -9.8 L 225.75 -9.8 C 225.41 -9.8 225.12 -9.51 225.12 -9.17 Z M 225.96 -0.84 L 225.96 -8.96 L 227.92 -8.96 C 230.38 -8.96 231.52 -7.46 231.52 -4.9 C 231.52 -2.24 230.33 -0.84 227.92 -0.84 Z M 242.68 0 L 242.68 -6.62 C 242.68 -6.86 242.49 -7.04 242.26 -7.04 C 242.02 -7.04 241.84 -6.86 241.84 -6.62 L 241.84 -6.09 C 241.33 -6.66 240.63 -6.99 239.79 -6.99 C 237.99 -6.99 236.91 -5.54 236.91 -3.49 C 236.91 -1.36 238.04 0 239.79 0 C 240.65 0 241.35 -0.32 241.84 -0.88 L 241.84 0 Z M 237.75 -3.49 C 237.75 -5.21 238.46 -6.15 239.79 -6.15 C 241.08 -6.15 241.84 -5.26 241.84 -3.49 C 241.84 -1.78 241.12 -0.84 239.79 -0.84 C 238.49 -0.84 237.75 -1.72 237.75 -3.49 Z M 251.01 0 L 253.41 -6.5 C 253.43 -6.54 253.44 -6.59 253.44 -6.65 C 253.44 -6.87 253.25 -7.07 253.02 -7.07 C 252.84 -7.07 252.69 -6.96 252.63 -6.8 L 250.47 -0.98 L 248.32 -6.8 C 248.26 -6.96 248.11 -7.07 247.93 -7.07 C 247.7 -7.07 247.51 -6.87 247.51 -6.65 C 247.51 -6.59 247.52 -6.54 247.53 -6.5 L 249.94 0 Z M 257.43 -3.5 C 257.43 -1.43 258.59 0 260.5 0 C 261.25 0 261.94 -0.24 262.46 -0.67 C 262.56 -0.76 262.61 -0.87 262.61 -0.99 C 262.61 -1.22 262.43 -1.41 262.19 -1.41 C 262.09 -1.41 262 -1.37 261.91 -1.3 C 261.55 -0.99 261.1 -0.84 260.5 -0.84 C 259.17 -0.84 258.41 -1.64 258.29 -3.07 L 262.74 -3.07 C 263.1 -3.07 263.38 -3.36 263.38 -3.72 C 263.31 -5.66 262.23 -6.99 260.5 -6.99 C 258.66 -6.99 257.43 -5.64 257.43 -3.5 Z M 258.29 -3.91 C 258.41 -5.39 259.2 -6.15 260.5 -6.15 C 261.73 -6.15 262.42 -5.36 262.53 -3.91 Z M 269.05 0 L 269.05 -3.49 C 269.05 -5.26 269.81 -6.15 271.1 -6.15 C 272.43 -6.15 273.14 -5.21 273.14 -3.49 L 273.14 0 L 273.98 0 L 273.98 -3.49 C 273.98 -5.54 272.9 -6.99 271.1 -6.99 C 270.26 -6.99 269.56 -6.66 269.05 -6.09 L 269.05 -6.62 C 269.05 -6.86 268.87 -7.04 268.63 -7.04 C 268.39 -7.04 268.21 -6.86 268.21 -6.62 L 268.21 0 Z M 279.65 2.8 L 279.65 -0.88 C 280.14 -0.32 280.84 0 281.69 0 C 283.44 0 284.58 -1.36 284.58 -3.49 C 284.58 -5.54 283.5 -6.99 281.69 -6.99 C 280.85 -6.99 280.15 -6.66 279.65 -6.09 L 279.65 -6.62 C 279.65 -6.86 279.47 -7.04 279.23 -7.04 C 278.99 -7.04 278.81 -6.86 278.81 -6.62 L 278.81 2.8 Z M 279.65 -3.49 C 279.65 -5.26 280.41 -6.15 281.69 -6.15 C 283.02 -6.15 283.74 -5.21 283.74 -3.49 C 283.74 -1.72 283 -0.84 281.69 -0.84 C 280.36 -0.84 279.65 -1.78 279.65 -3.49 Z M 291.87 -0.84 C 290.54 -0.84 289.83 -1.78 289.83 -3.49 C 289.83 -5.26 290.58 -6.15 291.87 -6.15 C 293.2 -6.15 293.92 -5.21 293.92 -3.49 C 293.92 -1.72 293.17 -0.84 291.87 -0.84 Z M 288.99 -3.49 C 288.99 -1.44 290.07 0 291.87 0 C 293.62 0 294.76 -1.36 294.76 -3.49 C 294.76 -5.54 293.68 -6.99 291.87 -6.99 C 290.14 -6.99 288.99 -5.63 288.99 -3.49 Z M 300.43 0 L 300.43 -3.95 C 300.44 -3.98 300.44 -4 300.44 -4.03 C 300.52 -5.45 301.2 -6.15 302.32 -6.15 C 302.86 -6.15 303.24 -5.99 303.53 -5.67 C 303.62 -5.59 303.72 -5.54 303.84 -5.54 C 304.07 -5.54 304.26 -5.73 304.26 -5.96 C 304.26 -6.08 304.22 -6.17 304.14 -6.26 C 303.69 -6.71 303.07 -6.99 302.32 -6.99 C 301.55 -6.99 300.9 -6.71 300.43 -6.2 L 300.43 -6.62 C 300.43 -6.86 300.24 -7.04 300.01 -7.04 C 299.77 -7.04 299.59 -6.86 299.59 -6.62 L 299.59 0 Z M 308.95 -6.15 L 309.53 -6.15 L 309.53 -2.1 C 309.53 -1.08 310.23 -0.25 311.15 -0.06 C 311.42 0.01 311.65 -0.2 311.65 -0.46 C 311.65 -0.66 311.51 -0.83 311.32 -0.87 C 310.73 -0.98 310.37 -1.43 310.37 -2.1 L 310.37 -6.15 L 311.42 -6.15 C 311.65 -6.15 311.84 -6.33 311.84 -6.57 C 311.84 -6.8 311.65 -6.99 311.42 -6.99 L 310.37 -6.99 L 310.37 -8.16 C 310.37 -8.4 310.18 -8.58 309.95 -8.58 C 309.71 -8.58 309.53 -8.4 309.53 -8.16 L 309.53 -6.99 L 308.95 -6.99 C 308.71 -6.99 308.53 -6.8 308.53 -6.57 C 308.53 -6.33 308.71 -6.15 308.95 -6.15 Z M 323.57 -0.35 L 323.26 -1.13 C 322.74 -0.94 322.18 -0.84 321.52 -0.84 C 318.93 -0.84 317.51 -2.37 317.51 -4.9 C 317.51 -7.53 319.02 -8.96 321.52 -8.96 C 324.11 -8.96 325.54 -7.43 325.54 -4.9 C 325.54 -3.92 325.22 -2.76 324.58 -2.76 C 323.9 -2.76 323.83 -3.35 323.83 -4.17 L 323.83 -7.43 C 323.83 -7.67 323.65 -7.85 323.41 -7.85 C 323.18 -7.85 322.99 -7.67 322.99 -7.43 L 322.99 -7.24 C 322.57 -7.64 322.03 -7.87 321.37 -7.87 C 319.83 -7.87 318.91 -6.64 318.91 -4.89 C 318.91 -3.08 319.87 -1.92 321.37 -1.92 C 322.15 -1.92 322.78 -2.24 323.2 -2.8 C 323.41 -2.3 323.82 -1.92 324.58 -1.92 C 325.91 -1.92 326.38 -3.77 326.38 -4.9 C 326.38 -7.83 324.53 -9.8 321.52 -9.8 C 318.63 -9.8 316.67 -7.95 316.67 -4.9 C 316.67 -1.97 318.51 0 321.52 0 C 322.27 0 322.97 -0.13 323.57 -0.35 Z M 319.75 -4.89 C 319.75 -6.3 320.31 -7.03 321.37 -7.03 C 322.41 -7.03 322.99 -6.34 322.99 -4.89 C 322.99 -3.5 322.43 -2.76 321.37 -2.76 C 320.32 -2.76 319.75 -3.44 319.75 -4.89 Z M 332.07 2.1 C 332.58 2.55 333.27 2.8 334.1 2.8 C 335.87 2.8 336.98 1.65 336.98 0 L 336.98 -6.62 C 336.98 -6.86 336.8 -7.04 336.56 -7.04 C 336.32 -7.04 336.14 -6.86 336.14 -6.62 L 336.14 -6.09 C 335.64 -6.66 334.94 -6.99 334.1 -6.99 C 332.29 -6.99 331.21 -5.54 331.21 -3.49 C 331.21 -1.36 332.35 0 334.1 0 C 334.95 0 335.65 -0.32 336.14 -0.88 L 336.14 0 C 336.14 1.26 335.45 1.96 334.1 1.96 C 333.44 1.96 332.98 1.81 332.63 1.48 C 332.56 1.41 332.46 1.37 332.35 1.37 C 332.12 1.37 331.93 1.55 331.93 1.79 C 331.93 1.92 331.98 2.02 332.07 2.1 Z M 332.05 -3.49 C 332.05 -5.21 332.77 -6.15 334.1 -6.15 C 335.38 -6.15 336.14 -5.26 336.14 -3.49 C 336.14 -1.78 335.43 -0.84 334.1 -0.84 C 332.79 -0.84 332.05 -1.72 332.05 -3.49 Z M 342.65 0 L 342.65 -4.05 C 342.65 -5.28 343.29 -6.15 344.39 -6.15 C 345.52 -6.15 346.12 -5.22 346.12 -4.05 L 346.12 0 L 346.96 0 L 346.96 -4.05 C 346.96 -5.28 347.61 -6.15 348.7 -6.15 C 349.83 -6.15 350.43 -5.22 350.43 -4.05 L 350.43 0 L 351.27 0 L 351.27 -4.05 C 351.27 -5.54 350.32 -6.99 348.7 -6.99 C 347.73 -6.99 346.98 -6.47 346.54 -5.7 C 346.11 -6.45 345.38 -6.99 344.39 -6.99 C 343.69 -6.99 343.08 -6.71 342.65 -6.26 L 342.65 -6.62 C 342.65 -6.86 342.47 -7.04 342.23 -7.04 C 341.99 -7.04 341.81 -6.86 341.81 -6.62 L 341.81 0 Z M 361.87 0 L 361.87 -6.62 C 361.87 -6.86 361.69 -7.04 361.45 -7.04 C 361.21 -7.04 361.03 -6.86 361.03 -6.62 L 361.03 -6.09 C 360.53 -6.66 359.83 -6.99 358.99 -6.99 C 357.18 -6.99 356.1 -5.54 356.1 -3.49 C 356.1 -1.36 357.24 0 358.99 0 C 359.84 0 360.54 -0.32 361.03 -0.88 L 361.03 0 Z M 356.94 -3.49 C 356.94 -5.21 357.66 -6.15 358.99 -6.15 C 360.28 -6.15 361.03 -5.26 361.03 -3.49 C 361.03 -1.78 360.32 -0.84 358.99 -0.84 C 357.69 -0.84 356.94 -1.72 356.94 -3.49 Z M 367.54 -8.78 L 367.54 -9.42 C 367.54 -9.66 367.36 -9.84 367.12 -9.84 C 366.88 -9.84 366.7 -9.66 366.7 -9.42 L 366.7 -8.78 C 366.7 -8.54 366.88 -8.36 367.12 -8.36 C 367.36 -8.36 367.54 -8.54 367.54 -8.78 Z M 366.7 0 L 367.54 0 L 367.54 -6.62 C 367.54 -6.86 367.36 -7.04 367.12 -7.04 C 366.88 -7.04 366.7 -6.86 366.7 -6.62 Z M 373.21 0 L 373.21 -9.84 C 373.21 -10.08 373.03 -10.26 372.79 -10.26 C 372.55 -10.26 372.37 -10.08 372.37 -9.84 L 372.37 0 Z M 378.6 0 C 378.91 0 379.16 -0.25 379.16 -0.56 C 379.16 -0.87 378.91 -1.12 378.6 -1.12 C 378.29 -1.12 378.04 -0.87 378.04 -0.56 C 378.04 -0.25 378.29 0 378.6 0 Z M 388.47 -1.3 C 388.11 -0.99 387.66 -0.84 387.06 -0.84 C 385.6 -0.84 384.83 -1.79 384.83 -3.5 C 384.83 -5.25 385.64 -6.15 387.06 -6.15 C 387.67 -6.15 388.12 -5.99 388.47 -5.67 C 388.56 -5.6 388.65 -5.56 388.75 -5.56 C 388.99 -5.56 389.17 -5.75 389.17 -5.98 C 389.17 -6.1 389.12 -6.22 389.03 -6.3 C 388.53 -6.73 387.84 -6.99 387.06 -6.99 C 385.22 -6.99 383.99 -5.64 383.99 -3.5 C 383.99 -1.43 385.15 0 387.06 0 C 387.81 0 388.5 -0.24 389.02 -0.67 C 389.12 -0.76 389.17 -0.87 389.17 -0.99 C 389.17 -1.22 388.99 -1.41 388.75 -1.41 C 388.65 -1.41 388.56 -1.37 388.47 -1.3 Z M 396.47 -0.84 C 395.14 -0.84 394.42 -1.78 394.42 -3.49 C 394.42 -5.26 395.18 -6.15 396.47 -6.15 C 397.8 -6.15 398.51 -5.21 398.51 -3.49 C 398.51 -1.72 397.77 -0.84 396.47 -0.84 Z M 393.58 -3.49 C 393.58 -1.44 394.66 0 396.47 0 C 398.22 0 399.35 -1.36 399.35 -3.49 C 399.35 -5.54 398.27 -6.99 396.47 -6.99 C 394.73 -6.99 393.58 -5.63 393.58 -3.49 Z M 405.02 0 L 405.02 -4.05 C 405.02 -5.28 405.66 -6.15 406.76 -6.15 C 407.89 -6.15 408.49 -5.22 408.49 -4.05 L 408.49 0 L 409.33 0 L 409.33 -4.05 C 409.33 -5.28 409.98 -6.15 411.07 -6.15 C 412.2 -6.15 412.8 -5.22 412.8 -4.05 L 412.8 0 L 413.64 0 L 413.64 -4.05 C 413.64 -5.54 412.69 -6.99 411.07 -6.99 C 410.1 -6.99 409.35 -6.47 408.91 -5.7 C 408.48 -6.45 407.75 -6.99 406.76 -6.99 C 406.06 -6.99 405.45 -6.71 405.02 -6.26 L 405.02 -6.62 C 405.02 -6.86 404.84 -7.04 404.6 -7.04 C 404.36 -7.04 404.18 -6.86 404.18 -6.62 L 404.18 0 Z" stroke-linecap="round" />
</g>
</g>
</g>
<g transform="matrix(1.5689649807041812 0 0 1.5689649807041814 1178.756569103778 200.54687827800592)" id="shape-89c50ce4-d261-4052-9f82-f2c6de3896fb"  >
<g style=""  paint-order="stroke"   >
		<g transform="matrix(1 0 0 1 40.04450794013644 0)" id="shape-3"  >
<path style="stroke: none; stroke-width: 1; stroke-dasharray: none; stroke-linecap: butt; stroke-dashoffset: 0; stroke-linejoin: miter; stroke-miterlimit: 4; fill: rgb(14,64,143); fill-rule: nonzero; opacity: 1;"  paint-order="stroke"  transform=" translate(-189.64450794013646, -162.59999999999997)" d="M 159.4 31.4 C 160 31.4 160.70000000000002 31.299999999999997 161.3 31.299999999999997 C 204.20000000000002 31.299999999999997 247.20000000000002 31.299999999999997 290.1 31.299999999999997 C 291.90000000000003 31.299999999999997 292.3 31.799999999999997 292.3 33.5 C 292.3 120.3 292.3 207.1 292.3 293.9 C 250.3 293.9 208.20000000000002 293.9 166.20000000000002 293.9 C 165.4 293.5 165.00000000000003 292.79999999999995 164.60000000000002 292 C 151.60000000000002 269.2 138.40000000000003 246.5 125.30000000000003 223.8 C 112.90000000000002 202.3 100.50000000000003 180.8 88.10000000000002 159.3 C 87.50000000000003 158.4 86.90000000000002 157.4 87.00000000000003 156.20000000000002 C 87.20000000000003 154.60000000000002 88.20000000000003 153.4 89.00000000000003 152.10000000000002 C 100.30000000000003 132.60000000000002 111.60000000000002 113.10000000000002 122.90000000000003 93.50000000000003 C 132.00000000000003 77.70000000000003 141.10000000000002 62.00000000000003 150.30000000000004 46.20000000000003 C 152.90000000000003 41.80000000000003 155.40000000000003 37.400000000000034 157.90000000000003 33.10000000000003 C 158.2 32.4 158.6 31.8 159.4 31.4 z" stroke-linecap="round" />
</g>
		<g transform="matrix(1 0 0 1 -63.099999999999994 62.45000000000002)" id="shape-2"  >
<path style="stroke: none; stroke-width: 1; stroke-dasharray: none; stroke-linecap: butt; stroke-dashoffset: 0; stroke-linejoin: miter; stroke-miterlimit: 4; fill: rgb(14,64,143); fill-rule: nonzero; opacity: 0.5;"  paint-order="stroke"  transform=" translate(-86.50000000000003, -225.04999999999998)" d="M 87 156.2 C 87.7 158.39999999999998 89.1 160.2 90.2 162.2 C 115.4 205.89999999999998 140.6 249.7 165.8 293.4 C 165.9 293.59999999999997 166 293.7 166.10000000000002 293.9 C 113.00000000000003 293.9 60.00000000000003 293.9 6.900000000000034 293.9 C 7.3000000000000345 292.5 8.200000000000035 291.4 8.900000000000034 290.2 C 34.500000000000036 246.1 60.20000000000003 202 85.90000000000003 158 C 86.20000000000003 157.4 86.50000000000003 156.8 86.70000000000003 156.3 L 86.90000000000003 156.20000000000002 L 87 156.2 z" stroke-linecap="round" />
</g>
		<g transform="matrix(1 0 0 1 -37.87194871689506 -68.85000000000001)" id="shape-1"  >
<path style="stroke: none; stroke-width: 1; stroke-dasharray: none; stroke-linecap: butt; stroke-dashoffset: 0; stroke-linejoin: miter; stroke-miterlimit: 4; fill: rgb(14,64,143); fill-rule: nonzero; opacity: 0.25;"  paint-order="stroke"  transform=" translate(-111.72805128310496, -93.74999999999997)" d="M 87 156.2 C 86.9 156.2 86.8 156.2 86.7 156.2 C 83.2 150.7 80.2 144.89999999999998 76.9 139.2 C 72.80000000000001 132.1 68.80000000000001 124.89999999999999 64.7 117.79999999999998 C 64.10000000000001 116.69999999999999 63.900000000000006 115.79999999999998 64.60000000000001 114.59999999999998 C 80.10000000000001 87.29999999999998 95.60000000000001 59.99999999999998 111.10000000000001 32.699999999999974 C 111.50000000000001 31.999999999999975 111.9 31.299999999999976 113.00000000000001 31.299999999999976 C 128.4 31.399999999999977 143.9 31.399999999999977 159.3 31.399999999999977 C 148.60000000000002 49.89999999999998 137.9 68.49999999999997 127.10000000000001 86.99999999999997 C 114.00000000000001 109.59999999999997 101 132.09999999999997 87.9 154.7 C 87.7 155.2 87.3 155.7 87 156.2 z" stroke-linecap="round" />
</g>
</g>
</g>
</svg>